<?xml version="1.0" encoding="utf-8"?>
<!-- Generator: Adobe Illustrator 21.1.0, SVG Export Plug-In . SVG Version: 6.00 Build 0)  -->
<svg version="1.1" id="Layer_1" xmlns="http://www.w3.org/2000/svg" xmlns:xlink="http://www.w3.org/1999/xlink" x="0px" y="0px"
	 viewBox="0 0 18.7 10.4" style="enable-background:new 0 0 18.7 10.4;" xml:space="preserve">
<style type="text/css">
	.st0{fill:url(#SVGID_1_);}
	.st1{fill:url(#SVGID_2_);}
	.st2{fill:url(#SVGID_3_);}
	.st3{fill:url(#SVGID_4_);}
</style>
<g>
	<linearGradient id="SVGID_1_" gradientUnits="userSpaceOnUse" x1="2.8932" y1="10.3815" x2="2.8932" y2="-9.094947e-13">
		<stop  offset="0" style="stop-color:#2880B8"/>
		<stop  offset="1" style="stop-color:#39B6B0"/>
	</linearGradient>
	<path class="st0" d="M4.5,0H1.3C0.6,0,0,0.6,0,1.3v7.8c0,0.7,0.6,1.3,1.3,1.3h3.2c0.7,0,1.3-0.6,1.3-1.3V1.3C5.8,0.6,5.2,0,4.5,0z
		 M3.6,7.9H2.7V3.3L1.9,3.6L1.7,2.8L3,2.4h0.6V7.9z"/>
	<linearGradient id="SVGID_2_" gradientUnits="userSpaceOnUse" x1="9.3874" y1="10.3815" x2="9.3874" y2="-9.094947e-13">
		<stop  offset="0" style="stop-color:#2880B8"/>
		<stop  offset="1" style="stop-color:#39B6B0"/>
	</linearGradient>
	<path class="st1" d="M11,0H7.8C7.1,0,6.5,0.6,6.5,1.3v7.8c0,0.7,0.6,1.3,1.3,1.3H11c0.7,0,1.3-0.6,1.3-1.3V1.3
		C12.3,0.6,11.7,0,11,0z M11.1,7.9H7.6V7.2l1.7-1.8c0.6-0.6,0.8-1,0.8-1.4c0-0.5-0.3-0.8-0.8-0.8c-0.4,0-0.7,0.2-1.1,0.7L7.7,3.3
		c0.4-0.6,1-1,1.8-1c0.9,0,1.6,0.6,1.6,1.5v0c0,0.7-0.3,1.2-1.1,2L8.8,7.1h2.2V7.9z"/>
	<linearGradient id="SVGID_3_" gradientUnits="userSpaceOnUse" x1="15.8545" y1="10.3044" x2="15.8545" y2="-9.094947e-13">
		<stop  offset="0" style="stop-color:#2880B8"/>
		<stop  offset="1" style="stop-color:#39B6B0"/>
	</linearGradient>
	<path class="st2" d="M17.4,0h-0.1l-1.2,1.4c0.8,0.1,1.4,0.6,1.4,1.5v0c0,1-0.7,1.7-1.8,1.7c-0.8,0-1.3-0.3-1.7-0.7l0.6-0.6
		c0.3,0.3,0.7,0.6,1.2,0.6c0.5,0,0.9-0.3,0.9-0.9v0c0-0.6-0.5-0.9-1.2-0.9h-0.3L15,1.5L16.3,0h-2C13.5,0,13,0.6,13,1.3v7.8
		c0,0.6,0.4,1.1,0.9,1.2l-0.1-0.5l2.6-3.6h0.8v3.5h0.7v0.6c0.5-0.2,0.9-0.6,0.9-1.2V1.3C18.7,0.6,18.2,0,17.4,0z"/>
	<linearGradient id="SVGID_4_" gradientUnits="userSpaceOnUse" x1="15.5482" y1="9.691" x2="15.5482" y2="7.5128">
		<stop  offset="0" style="stop-color:#2880B8"/>
		<stop  offset="1" style="stop-color:#39B6B0"/>
	</linearGradient>
	<polygon class="st3" points="16.3,9.7 16.3,7.5 14.8,9.7 	"/>
</g>
</svg>
